<?xml version="1.0" encoding="UTF-8" standalone="no"?>
<!DOCTYPE svg PUBLIC "-//W3C//DTD SVG 1.1//EN" "http://www.w3.org/Graphics/SVG/1.1/DTD/svg11.dtd">
<svg width="100%" height="100%" viewBox="0 0 525 140" version="1.1" xmlns="http://www.w3.org/2000/svg" xmlns:xlink="http://www.w3.org/1999/xlink" xml:space="preserve" xmlns:serif="http://www.serif.com/" style="fill-rule:evenodd;clip-rule:evenodd;stroke-linejoin:round;stroke-miterlimit:2;">
    <g transform="matrix(1,0,0,1,-678,-2327.52)">
        <g transform="matrix(0.984099,0,0,0.519104,10.6,1506.13)">
            <rect id="Artboard2" x="678.184" y="1582.32" width="533.306" height="269.456" style="fill:none;"/>
            <g id="Artboard21" serif:id="Artboard2">
                <g transform="matrix(1.01616,0,0,1.9264,-17.4999,890.544)">
                    <path d="M824.299,423.728L824.299,413.964L812.924,413.964L812.924,457.248L824.299,457.248L824.299,439.23C824.299,427.654 827.62,421.815 834.365,421.815C839.096,421.815 841.914,424.835 841.914,431.68L841.914,457.248L853.289,457.248L853.289,429.365C853.289,417.084 846.242,412.555 838.995,412.555C832.049,412.555 827.218,416.48 824.5,423.728L824.299,423.728Z" style="fill:white;fill-rule:nonzero;"/>
                    <g transform="matrix(1.05452,-2.3415e-16,-2.3415e-16,-1.05452,-47.3963,1133.01)">
                        <path d="M808.495,671.84L806.636,671.84L806.638,673.699C806.638,673.731 806.638,673.762 806.638,673.794C806.586,694.392 789.754,708.279 770.949,708.279C752.143,708.279 735.312,694.487 735.259,673.794C735.259,673.763 735.259,673.731 735.259,673.7C735.312,653.007 752.143,639.215 770.949,639.215C778.383,639.215 785.507,641.381 791.411,645.274C791.411,645.274 786.764,654.492 786.764,654.492C782.559,650.809 777.056,648.688 770.949,648.688C757.481,648.688 746.898,658.941 746.846,673.69L746.846,673.692C746.846,673.729 746.846,673.765 746.846,673.801L746.846,673.802C746.898,688.553 757.481,698.806 770.949,698.806C784.416,698.806 795,688.553 795.051,673.804L795.051,673.802C795.051,673.765 795.051,673.729 795.051,673.693L795.048,671.84L788.638,671.84C788.638,671.84 800.423,648.27 800.423,648.27L812.208,671.84L808.495,671.84Z" style="fill:white;"/>
                    </g>
                    <g transform="matrix(-1.05452,-2.3415e-16,2.3415e-16,-1.05452,1781.65,1133.01)">
                        <path d="M808.495,671.84L806.636,671.84L806.638,673.699C806.638,673.731 806.638,673.762 806.638,673.794C806.586,694.392 789.754,708.279 770.949,708.279C752.143,708.279 735.312,694.487 735.259,673.794C735.259,673.763 735.259,673.731 735.259,673.7C735.312,653.007 752.143,639.215 770.949,639.215C778.383,639.215 785.507,641.381 791.411,645.274C791.411,645.274 786.764,654.492 786.764,654.492C782.559,650.809 777.056,648.688 770.949,648.688C757.481,648.688 746.898,658.941 746.846,673.69L746.846,673.692C746.846,673.729 746.846,673.765 746.846,673.801L746.846,673.802C746.898,688.553 757.481,698.806 770.949,698.806C784.416,698.806 795,688.553 795.051,673.804L795.051,673.802C795.051,673.765 795.051,673.729 795.051,673.693L795.048,671.84L788.638,671.84C788.638,671.84 800.423,648.27 800.423,648.27L812.208,671.84L808.495,671.84Z" style="fill:white;"/>
                    </g>
                    <g transform="matrix(1,0,0,1,-1,0)">
                        <rect x="861.442" y="385.678" width="11.375" height="71.569" style="fill:white;fill-rule:nonzero;"/>
                    </g>
                    <path d="M894.66,480.4L905.934,480.4L905.934,457.248L925.16,413.964L913.584,413.964L900.297,445.169L887.01,413.964L875.434,413.964L894.66,457.248L894.66,480.4Z" style="fill:white;fill-rule:nonzero;"/>
                    <g transform="matrix(1,0,0,1,5.9768,0)">
                        <path d="M1016.06,423.728L1016.06,413.964L1004.68,413.964L1004.68,457.248L1016.06,457.248L1016.06,439.23C1016.06,427.654 1019.38,421.815 1026.12,421.815C1030.85,421.815 1033.67,424.835 1033.67,431.68L1033.67,457.248L1045.05,457.248L1045.05,429.365C1045.05,417.084 1038,412.555 1030.75,412.555C1023.81,412.555 1018.98,416.48 1016.26,423.728L1016.06,423.728Z" style="fill:white;fill-rule:nonzero;"/>
                    </g>
                    <g transform="matrix(1,0,0,1,4.9768,0)">
                        <path d="M1072.93,458.657C1084.71,458.657 1092.76,451.107 1095.17,441.243L1084,441.243C1082.49,446.376 1078.77,449.497 1073.13,449.497C1066.18,449.497 1061.65,443.357 1061.65,435.505C1061.65,427.754 1066.18,421.614 1073.13,421.614C1078.77,421.614 1082.49,424.735 1084,429.868L1095.17,429.868C1092.76,419.802 1084.81,412.454 1073.03,412.454C1059.64,412.454 1050.28,422.419 1050.28,435.505C1050.28,448.692 1059.54,458.657 1072.93,458.657Z" style="fill:white;fill-rule:nonzero;"/>
                    </g>
                    <g transform="matrix(1,0,0,1,4.9768,0)">
                        <path d="M1120.14,458.657C1130.81,458.657 1138.96,452.617 1141.88,444.162L1130.61,444.162C1128.9,447.886 1125.47,449.698 1120.24,449.698C1113.39,449.698 1108.96,444.464 1108.46,438.022L1142.59,438.022C1142.89,421.111 1132.22,412.454 1120.24,412.454C1106.55,412.454 1097.29,422.419 1097.29,435.505C1097.29,448.692 1106.65,458.657 1120.14,458.657ZM1120.04,421.01C1125.98,421.01 1130.31,424.634 1131.01,431.076L1108.66,431.076C1109.77,425.037 1113.7,421.01 1120.04,421.01Z" style="fill:white;fill-rule:nonzero;"/>
                    </g>
                </g>
                <g transform="matrix(0.203928,0,0,0.3866,1003.1,1593.99)">
                    <path d="M769.64,458.858C789.873,458.858 805.978,442.451 805.978,422.419C805.978,402.388 789.873,386.081 769.64,386.081C749.408,386.081 733.302,402.388 733.302,422.419C733.302,442.451 749.408,458.858 769.64,458.858ZM769.64,450.604C754.038,450.604 742.059,438.223 742.059,422.419C742.059,406.616 754.038,394.235 769.64,394.235C785.242,394.235 797.221,406.616 797.221,422.419C797.221,438.223 785.242,450.604 769.64,450.604ZM769.842,440.84C779.404,440.84 786.249,435.606 788.564,427.15L779.304,427.15C777.693,431.076 775.176,433.19 769.842,433.19C763.802,433.19 759.071,428.56 759.071,422.017C759.071,415.474 764.104,410.944 769.842,410.944C774.975,410.944 777.592,413.159 779.304,416.883L788.564,416.883C786.249,408.428 779.505,403.294 769.842,403.294C759.675,403.294 750.313,410.743 750.313,422.017C750.313,433.291 759.675,440.84 769.842,440.84Z" style="fill:white;fill-rule:nonzero;"/>
                </g>
            </g>
        </g>
    </g>
</svg>
